<svg width="79" height="29" viewBox="0 0 79 29" fill="none" xmlns="http://www.w3.org/2000/svg">
<path d="M7.96826 21.7609C7.35656 21.7609 6.84144 21.5836 6.4229 21.2289C6.00437 20.8421 5.7951 20.3424 5.7951 19.7299V7.10855C5.7951 6.1414 5.31218 5.65783 4.34633 5.65783H1.97999C1.40048 5.65783 0.917558 5.48052 0.531218 5.12589C0.177073 4.73903 0 4.25546 0 3.67517C0 3.09488 0.177073 2.62742 0.531218 2.2728C0.917558 1.88594 1.40048 1.69251 1.97999 1.69251H13.9082C14.5199 1.69251 15.0029 1.88594 15.357 2.2728C15.7434 2.62742 15.9365 3.09488 15.9365 3.67517C15.9365 4.25546 15.7434 4.73903 15.357 5.12589C15.0029 5.48052 14.5199 5.65783 13.9082 5.65783H11.5902C10.6244 5.65783 10.1414 6.1414 10.1414 7.10855V19.7299C10.1414 20.3424 9.93216 20.8421 9.51362 21.2289C9.12728 21.5836 8.61216 21.7609 7.96826 21.7609Z" fill="#24252C"/>
<path d="M23.3841 21.7609C21.2271 21.7609 19.4724 21.0839 18.1203 19.7299C16.8003 18.3436 16.1403 16.506 16.1403 14.2171C16.1403 11.9282 16.7842 10.1228 18.072 8.80106C19.392 7.44705 21.1144 6.77005 23.2393 6.77005C24.7524 6.77005 26.0724 7.30198 27.1992 8.36585C27.328 7.97899 27.5695 7.6566 27.9236 7.3987C28.2778 7.14079 28.6963 7.01184 29.1792 7.01184C29.8231 7.01184 30.3383 7.20527 30.7246 7.59213C31.1431 7.94675 31.3524 8.38196 31.3524 8.89778V19.8749C31.3524 20.423 31.1431 20.8743 30.7246 21.2289C30.3383 21.5836 29.8231 21.7609 29.1792 21.7609C28.1168 21.7609 27.4568 21.2934 27.1992 20.3585C26.169 21.2934 24.8973 21.7609 23.3841 21.7609ZM23.7222 17.8439C24.7524 17.8439 25.5734 17.5054 26.1851 16.8284C26.7968 16.1192 27.1027 15.2487 27.1027 14.2171C27.1027 13.1532 26.7968 12.2989 26.1851 11.6542C25.5734 11.0094 24.7524 10.687 23.7222 10.687C22.7241 10.687 21.9032 11.0094 21.2593 11.6542C20.6476 12.2989 20.3417 13.1532 20.3417 14.2171C20.3417 15.2487 20.6476 16.1192 21.2593 16.8284C21.9032 17.5054 22.7241 17.8439 23.7222 17.8439Z" fill="#24252C"/>
<path d="M40.0024 21.7609C37.8132 21.7609 36.0102 21.3095 34.5937 20.4069C34.3039 20.2134 34.0946 19.9878 33.9659 19.7299C33.8371 19.4397 33.7727 19.1657 33.7727 18.9078C33.7727 18.3597 33.9498 17.86 34.3039 17.4087C34.6902 16.9574 35.1571 16.7317 35.7044 16.7317C35.9619 16.7317 36.2195 16.7962 36.4771 16.9251C37.0566 17.183 37.7166 17.4087 38.4571 17.6021C39.1975 17.7633 39.8736 17.8439 40.4853 17.8439C41.6766 17.8439 42.2722 17.5699 42.2722 17.0218C42.2722 16.6995 42.1273 16.4254 41.8375 16.1998C41.5478 15.9419 40.8717 15.7645 39.8092 15.6678C39.3907 15.6356 38.8434 15.5711 38.1673 15.4744C37.5234 15.3777 36.8795 15.2004 36.2356 14.9425C35.5917 14.6523 35.0444 14.2332 34.5937 13.6852C34.1751 13.1371 33.9659 12.3956 33.9659 11.4607C33.9659 10.01 34.5132 8.86554 35.6078 8.02734C36.7024 7.18915 38.1673 6.77005 40.0024 6.77005C41.0649 6.77005 42.0629 6.88288 42.9966 7.10855C43.9624 7.33422 44.6868 7.67272 45.1697 8.12406C45.6204 8.54316 45.8458 9.02673 45.8458 9.57478C45.8458 10.0584 45.6687 10.4936 45.3146 10.8804C44.9605 11.2673 44.5097 11.4607 43.9624 11.4607C43.6726 11.4607 43.399 11.3962 43.1414 11.2673C42.7551 11.0094 42.2561 10.816 41.6444 10.687C41.0649 10.5581 40.4692 10.4936 39.8575 10.4936C38.6341 10.4936 38.0224 10.7515 38.0224 11.2673C38.0224 11.493 38.1351 11.7025 38.3605 11.8959C38.618 12.0571 39.1814 12.2022 40.0507 12.3312C40.598 12.3956 41.2258 12.4924 41.9341 12.6213C42.6424 12.718 43.3185 12.9114 43.9624 13.2016C44.6385 13.4595 45.2019 13.8947 45.6526 14.5072C46.1034 15.1198 46.3287 15.958 46.3287 17.0218C46.3287 18.4726 45.7492 19.6331 44.5902 20.5036C43.4312 21.3418 41.9019 21.7609 40.0024 21.7609Z" fill="#24252C"/>
<path d="M51.1599 21.7609C50.5482 21.7609 50.033 21.5836 49.6145 21.2289C49.196 20.8743 48.9867 20.423 48.9867 19.8749V1.88594C48.9867 1.37013 49.1799 0.934911 49.5662 0.58029C49.9848 0.19343 50.516 0 51.1599 0C51.7716 0 52.2706 0.19343 52.6569 0.58029C53.0433 0.934911 53.2365 1.38625 53.2365 1.9343V10.2518C53.2365 10.6386 53.3491 10.8321 53.5745 10.8321C53.6389 10.8321 53.7677 10.7676 53.9608 10.6386L58.6452 7.15691C59.0316 6.899 59.4501 6.77005 59.9008 6.77005C60.4481 6.77005 60.8989 6.96348 61.253 7.35034C61.6072 7.7372 61.7842 8.18853 61.7842 8.70435C61.7842 9.41359 61.4623 9.97776 60.8184 10.3969L57.0033 12.9114C56.6813 13.1371 56.5203 13.3789 56.5203 13.6368C56.5203 13.8947 56.6491 14.1043 56.9067 14.2655L61.3013 18.2308C61.5911 18.4564 61.7842 18.7143 61.8808 19.0045C61.9774 19.2946 62.0257 19.5687 62.0257 19.8266C62.0257 20.3424 61.8164 20.7937 61.3979 21.1806C61.0115 21.5674 60.5447 21.7609 59.9974 21.7609C59.4501 21.7609 58.9672 21.5513 58.5486 21.1322L53.816 16.4899C53.7194 16.3932 53.6067 16.3448 53.4779 16.3448C53.3169 16.3448 53.2365 16.4738 53.2365 16.7317V19.8266C53.2365 20.3746 53.0272 20.8421 52.6087 21.2289C52.2223 21.5836 51.7394 21.7609 51.1599 21.7609Z" fill="#24252C"/>
<path d="M63.0059 8.70432C63.0059 8.05955 63.2312 7.57598 63.682 7.25359C64.1327 6.93121 64.6478 6.77002 65.2273 6.77002C65.678 6.77002 66.0644 6.89897 66.3863 7.15688C66.7405 7.38255 66.9819 7.70493 67.1107 8.12403L70.1049 15.426C70.2658 15.8451 70.4912 16.0547 70.7809 16.0547C71.0707 16.0547 71.28 15.8451 71.4088 15.426L74.0166 8.12403C74.1775 7.67269 74.4351 7.33419 74.7892 7.10852C75.1756 6.88285 75.578 6.77002 75.9965 6.77002C76.5439 6.77002 77.0429 6.94733 77.4936 7.30195C77.9765 7.65657 78.218 8.12403 78.218 8.70432C78.218 9.0267 78.1536 9.33297 78.0248 9.62311L70.4912 27.0318C70.2658 27.5154 69.9761 27.8539 69.6219 28.0473C69.3 28.273 68.9619 28.3858 68.6078 28.3858C68.0283 28.3858 67.4971 28.1763 67.0141 27.7572C66.5634 27.3703 66.338 26.9029 66.338 26.3548C66.338 26.0647 66.4024 25.8068 66.5312 25.5811L69.139 20.9388C68.5917 20.7776 68.1571 20.3746 67.8351 19.7298L63.1507 9.57475C63.0542 9.28461 63.0059 8.99446 63.0059 8.70432Z" fill="#F5F876"/>
</svg>
